<?xml version="1.0" encoding="utf-8"?>
<!-- Generator: Adobe Illustrator 27.0.0, SVG Export Plug-In . SVG Version: 6.00 Build 0)  -->
<svg version="1.1" xmlns="http://www.w3.org/2000/svg" xmlns:xlink="http://www.w3.org/1999/xlink" x="0px" y="0px"
	 viewBox="0 0 750 500" style="enable-background:new 0 0 750 500;" xml:space="preserve">
<style type="text/css">
	.st0{fill:url(#SVGID_1_);}
	.st1{opacity:0.5;stroke:#000000;stroke-linecap:round;stroke-linejoin:round;stroke-miterlimit:10;}
	.st2{fill:#25F6E5;stroke:#000000;stroke-miterlimit:10;}
	.st3{fill:#FFFFFF;stroke:#000000;stroke-miterlimit:10;}
	.st4{fill:#ED4854;stroke:#000000;stroke-miterlimit:10;}
	.st5{fill:none;stroke:#FFFFFF;stroke-width:2;stroke-miterlimit:10;}
	.st6{clip-path:url(#SVGID_00000043453406016534222500000008006145650447975601_);}
	.st7{fill:url(#SVGID_00000111902640207832799730000006573797077918421159_);}
	.st8{stroke:#000000;stroke-linecap:round;stroke-linejoin:round;stroke-miterlimit:10;}
	.st9{fill:none;stroke:#FFFFFF;stroke-miterlimit:10;}
	.st10{fill:#FFFFFF;stroke:#000000;stroke-linecap:round;stroke-linejoin:round;stroke-miterlimit:10;}
	.st11{fill:#FFFFFF;}
	.st12{fill:#FCEE21;}
	.st13{fill:#FE49A4;}
</style>
<g id="BACKGROUND">
	<linearGradient id="SVGID_1_" gradientUnits="userSpaceOnUse" x1="375" y1="-6" x2="375" y2="507.875">
		<stop  offset="0" style="stop-color:#25F6E5"/>
		<stop  offset="0.1506" style="stop-color:#52D2D7"/>
		<stop  offset="0.3732" style="stop-color:#8FA2C5"/>
		<stop  offset="0.5775" style="stop-color:#BF7BB7"/>
		<stop  offset="0.7565" style="stop-color:#E160AD"/>
		<stop  offset="0.9035" style="stop-color:#F64FA6"/>
		<stop  offset="1" style="stop-color:#FE49A4"/>
	</linearGradient>
	<rect class="st0" width="750" height="500"/>
</g>
<g id="OBJECTS">
	<g>
		<defs>
			<rect id="SVGID_00000127023518144363333600000009978542510078369928_" width="750" height="500"/>
		</defs>
		<clipPath id="SVGID_00000090279641421616579870000011380304483168991402_">
			<use xlink:href="#SVGID_00000127023518144363333600000009978542510078369928_"  style="overflow:visible;"/>
		</clipPath>
		<g style="clip-path:url(#SVGID_00000090279641421616579870000011380304483168991402_);">
			
				<linearGradient id="SVGID_00000000220406768321803380000000270655335074908081_" gradientUnits="userSpaceOnUse" x1="524.3762" y1="96.3913" x2="524.3762" y2="262.6263">
				<stop  offset="0" style="stop-color:#FCEE21"/>
				<stop  offset="0.1302" style="stop-color:#FCE925"/>
				<stop  offset="0.2901" style="stop-color:#FCDA31"/>
				<stop  offset="0.4655" style="stop-color:#FDC145"/>
				<stop  offset="0.6522" style="stop-color:#FD9E61"/>
				<stop  offset="0.8455" style="stop-color:#FE7284"/>
				<stop  offset="1" style="stop-color:#FE49A4"/>
			</linearGradient>
			<path style="fill:url(#SVGID_00000000220406768321803380000000270655335074908081_);" d="M634.86,256.84
				c5.36-13.53,8.3-28.28,8.3-43.71c0-65.61-53.18-118.79-118.79-118.79s-118.79,53.18-118.79,118.79c0,15.44,2.95,30.18,8.3,43.71
				H634.86z"/>
			<path class="st8" d="M750,117.87v225.2H0v-85.2c5.91-3.95,12.47-6.95,19.24-8.74c23.6-6.25,48.75-0.75,71.71,7.56
				c22.96,8.32,45,19.45,68.79,24.97c32.85,7.63,68.23,3.9,98.78-10.4c24.21-11.34,44.93-28.8,67.38-43.31
				c22.45-14.52,48.22-26.44,74.88-24.46c27.6,2.05,51.66,18.47,75.71,32.14c24.06,13.68,52.43,25.3,78.81,16.92
				c21.24-6.75,36.4-25,50.9-41.93c32.33-37.73,69.89-74.6,117.92-87.35C732.58,121.03,741.33,119.53,750,117.87z"/>
			<g>
				<polygon class="st8" points="538.83,176.35 545.53,149.89 543.59,133.24 527.39,124.46 534.71,135.53 529.44,133.63 
					536.26,145.36 531.07,144.18 537.32,156.9 534.2,155.45 538.04,164.96 				"/>
				<polygon class="st8" points="538.94,175.98 549.94,151 561.73,139.08 579.9,142.13 567.32,146.35 572.64,148.09 560.04,153.13 
					564.86,155.4 552.1,161.58 555.46,162.35 546.58,167.49 				"/>
				<polygon class="st8" points="521.53,209.24 513.66,244.3 497.33,273.68 511.19,278.2 511.97,278.46 525.24,242.5 527.83,210.47 
					533,190.37 538.95,176.08 538.73,175.59 528.12,189.05 				"/>
				<polygon class="st8" points="513.66,244.3 511.19,278.2 511.97,278.46 525.24,242.5 				"/>
				<polygon class="st8" points="538.86,176.36 562.88,158.98 587.86,163.91 607.81,179.85 593.13,174.6 596.82,180.79 
					574.61,169.95 581.66,178.05 562.72,171.52 567.04,175.99 553.17,172.26 				"/>
				<polygon class="st8" points="538.95,176.08 549.63,178.2 554.23,184.55 554.51,179.8 565.97,192.6 566.03,185.24 577.3,198.41 
					576.45,192.3 589.63,205.05 581.4,183.24 559.45,169.53 				"/>
				<polygon class="st8" points="513.69,138.81 525.67,147.58 519.11,148.25 530.74,158.16 526.55,157.85 534.24,165.55 
					538.95,176.08 538.62,164.58 538.17,148.69 530.36,133.57 508.23,130.82 520.57,138.8 				"/>
				<polygon class="st8" points="530.74,158.16 538.62,164.58 538.17,148.69 				"/>
				<polygon class="st8" points="491.57,156.94 511.85,158.12 506.21,161.72 524.81,165.76 519.56,167.03 532.6,171.56 
					538.95,176.08 529.01,154.06 507.96,143.25 487.19,146.4 479.94,154.91 495.57,152.67 				"/>
				<polygon class="st8" points="538.95,176.08 549.63,178.2 554.23,184.55 554.51,179.8 565.97,192.6 566.03,185.24 559.45,169.53 
									"/>
				<polygon class="st8" points="576.45,192.3 589.63,205.05 581.4,183.24 				"/>
				<polygon class="st8" points="528.12,189.05 521.53,209.24 533,190.37 				"/>
				<polygon class="st8" points="521.53,209.24 525.24,242.5 527.83,210.47 				"/>
				<polygon class="st8" points="566.03,185.24 577.3,198.41 576.45,192.3 				"/>
				<polygon class="st8" points="559.45,169.53 566.03,185.24 581.4,183.24 				"/>
				<path class="st8" d="M519.56,167.03l13.05,4.53l6.34,4.52l-9.94-22.02l-4.19,11.69c0,0,0,0-0.01,0L519.56,167.03z"/>
				<polygon class="st8" points="511.85,158.12 506.21,161.72 524.81,165.76 507.96,143.25 				"/>
				<polygon class="st8" points="492.67,179.43 507.31,172.65 503.79,179.55 519.14,173.79 516.28,177.77 527.39,174.62 
					538.95,176.08 515.98,160.89 498.73,159.83 482.73,180.19 496.94,172.59 				"/>
				<polygon class="st8" points="479.94,154.91 495.57,152.67 507.96,143.25 487.19,146.4 				"/>
				<polygon class="st8" points="496.94,172.59 492.67,179.43 507.31,172.65 515.98,160.89 498.73,159.83 				"/>
				<polygon class="st8" points="538.95,176.08 546.75,184.73 546.95,192.93 549.95,189.2 552.21,207.15 556.53,201.12 
					558.41,219.26 561.24,213.67 564.99,232.69 570.67,209.41 570.67,209.41 561.2,187.9 				"/>
				<polygon class="st8" points="538.95,176.08 546.75,184.73 546.95,192.93 549.95,189.2 552.21,207.15 556.53,201.12 561.2,187.9 
									"/>
				<polygon class="st8" points="556.53,201.12 570.67,209.41 561.2,187.9 				"/>
				<path class="st8" d="M561.24,213.67l3.76,19.02l5.67-23.28C570.55,209.75,561.24,213.67,561.24,213.67z"/>
				<polygon class="st8" points="546.75,184.73 546.95,192.93 549.95,189.2 				"/>
				<polygon class="st8" points="520.57,138.8 538.17,148.69 530.36,133.57 				"/>
			</g>
		</g>
		<g style="clip-path:url(#SVGID_00000090279641421616579870000011380304483168991402_);">
			<g>
				<polygon class="st9" points="756.9,72.97 -6.9,72.97 -438.11,-206.29 1188.11,-206.29 				"/>
				<line class="st9" x1="851.7" y1="11.57" x2="-101.7" y2="11.57"/>
				<line class="st9" x1="832.77" y1="23.84" x2="-82.77" y2="23.84"/>
				<line class="st9" x1="815.27" y1="35.17" x2="-65.27" y2="35.17"/>
				<line class="st9" x1="799.07" y1="45.66" x2="-49.07" y2="45.66"/>
				<line class="st9" x1="784.02" y1="55.41" x2="-34.02" y2="55.41"/>
				<line class="st9" x1="769.99" y1="64.49" x2="-19.99" y2="64.49"/>
				<line class="st9" x1="40.84" y1="72.97" x2="-336.47" y2="-206.29"/>
				<line class="st9" x1="88.57" y1="72.97" x2="-234.83" y2="-206.29"/>
				<line class="st9" x1="136.31" y1="72.97" x2="-133.19" y2="-206.29"/>
				<line class="st9" x1="184.05" y1="72.97" x2="-31.55" y2="-206.29"/>
				<line class="st9" x1="231.79" y1="72.97" x2="70.08" y2="-206.29"/>
				<line class="st9" x1="279.52" y1="72.97" x2="171.72" y2="-206.29"/>
				<line class="st9" x1="327.26" y1="72.97" x2="273.36" y2="-206.29"/>
				<line class="st9" x1="375" y1="72.97" x2="375" y2="-206.29"/>
				<line class="st9" x1="422.74" y1="72.97" x2="476.64" y2="-206.29"/>
				<line class="st9" x1="470.48" y1="72.97" x2="578.28" y2="-206.29"/>
				<line class="st9" x1="518.21" y1="72.97" x2="679.91" y2="-206.29"/>
				<line class="st9" x1="781.55" y1="-206.29" x2="565.95" y2="72.97"/>
				<line class="st9" x1="883.19" y1="-206.29" x2="613.69" y2="72.97"/>
				<line class="st9" x1="984.83" y1="-206.29" x2="661.43" y2="72.97"/>
				<line class="st9" x1="1086.47" y1="-206.29" x2="709.16" y2="72.97"/>
			</g>
			<g>
				<polygon class="st9" points="-6.9,346.67 756.9,346.67 1188.11,857.72 -438.11,857.72 				"/>
				<line class="st9" x1="-122.28" y1="483.41" x2="872.28" y2="483.41"/>
				<line class="st9" x1="-101.7" y1="459.03" x2="851.7" y2="459.03"/>
				<line class="st9" x1="-82.77" y1="436.58" x2="832.77" y2="436.58"/>
				<line class="st9" x1="-65.27" y1="415.85" x2="815.27" y2="415.85"/>
				<line class="st9" x1="-49.07" y1="396.65" x2="799.07" y2="396.65"/>
				<line class="st9" x1="-34.02" y1="378.81" x2="784.02" y2="378.81"/>
				<line class="st9" x1="-19.99" y1="362.19" x2="769.99" y2="362.19"/>
				<line class="st9" x1="709.16" y1="346.67" x2="1086.47" y2="857.72"/>
				<line class="st9" x1="661.43" y1="346.67" x2="984.83" y2="857.72"/>
				<line class="st9" x1="613.69" y1="346.67" x2="883.19" y2="857.72"/>
				<line class="st9" x1="565.95" y1="346.67" x2="781.55" y2="857.72"/>
				<line class="st9" x1="518.21" y1="346.67" x2="679.91" y2="857.72"/>
				<line class="st9" x1="470.48" y1="346.67" x2="578.28" y2="857.72"/>
				<line class="st9" x1="422.74" y1="346.67" x2="476.64" y2="857.72"/>
				<line class="st9" x1="375" y1="346.67" x2="375" y2="857.72"/>
				<line class="st9" x1="327.26" y1="346.67" x2="273.36" y2="857.72"/>
				<line class="st9" x1="279.52" y1="346.67" x2="171.72" y2="857.72"/>
				<line class="st9" x1="231.79" y1="346.67" x2="70.08" y2="857.72"/>
				<line class="st9" x1="184.05" y1="346.67" x2="-31.55" y2="857.72"/>
				<line class="st9" x1="-133.19" y1="857.72" x2="136.31" y2="346.67"/>
				<line class="st9" x1="-234.83" y1="857.72" x2="88.57" y2="346.67"/>
				<line class="st9" x1="-336.47" y1="857.72" x2="40.84" y2="346.67"/>
			</g>
		</g>
		<g style="clip-path:url(#SVGID_00000090279641421616579870000011380304483168991402_);">
			<polygon class="st10" points="715.59,231.82 701.37,195.97 685.36,178.52 659.54,181.86 677.09,188.49 669.48,190.67 687,198.45 
				680.07,201.4 697.77,210.79 692.98,211.71 705.26,219.43 			"/>
			<polygon class="st10" points="743,289.99 756.49,349.43 782.06,400.92 762.02,406.01 760.88,406.31 739.42,344.44 733.83,290.93 
				725.13,256.75 715.62,232.06 715.91,231.28 732.21,255.41 			"/>
			<polygon class="st10" points="715.69,232.37 682.69,206.55 647.15,212.2 618.15,233.66 639.15,227.01 633.62,235.56 
				665.55,221.42 655.16,232.49 682.24,224.28 675.91,230.35 695.69,225.82 			"/>
			<polygon class="st10" points="715.57,231.97 700.38,234.39 693.56,243.11 693.4,236.38 676.55,253.87 676.85,243.46 
				660.25,261.47 661.77,252.89 642.48,270.19 655.26,239.84 686.97,221.63 			"/>
			<polygon class="st10" points="734.67,178.01 722.88,192.67 731.13,191.34 720.13,207.28 725.17,205.54 718.26,217.48 
				715.95,231.91 712.58,217.72 707.93,198.12 712.54,177.05 738.74,166.44 726.24,180.25 			"/>
			<polygon class="st10" points="783.47,207.43 754.77,208.03 762.55,213.41 736.08,218.13 743.42,220.2 724.77,225.91 
				715.58,231.97 730.77,201.4 761.05,187.23 790.21,192.77 800,205.18 778.05,201.19 			"/>
			<polygon class="st10" points="777.65,253.01 760.06,238.53 762.41,249.22 743.47,235.88 745.96,242.33 731.9,234.07 
				715.58,231.97 752.38,219.37 776.35,224.06 790.98,257.59 774.25,242.14 			"/>
			<path class="st10" d="M715.57,231.97l-9.5,13.43l1.08,11.53l-4.83-4.73l-0.18,25.57l-7.07-7.74l0.38,25.76l-4.89-7.36l-2.1,27.31
				l-11.84-31.72c0,0,0,0,0,0l9.69-31.76L715.57,231.97z"/>
		</g>
		<g style="clip-path:url(#SVGID_00000090279641421616579870000011380304483168991402_);">
			<polygon class="st8" points="30.6,130.85 46.85,79.7 67.37,53.9 103.53,56.03 79.83,66.94 90.6,69.23 67.03,81.73 76.94,85.15 
				53.29,99.92 60.02,100.73 43.74,112.64 			"/>
			<polygon class="st8" points="30.8,130.11 38.33,76.97 31.02,44.83 -2.5,31.08 14.14,51.18 3.43,48.57 19.25,70.06 8.85,68.85 
				23.76,92.4 17.34,90.21 26.85,108 			"/>
			<polygon class="st8" points="25.39,203.73 2.16,270.44 -1.05,336.45 -28.88,329.63 -30.46,329.25 -15.32,255.41 13.58,199.23 
				25.8,160.3 30.68,130.27 31.56,129.68 35.32,163.16 			"/>
			<polygon class="st8" points="2.16,270.44 -28.88,329.63 -30.46,329.25 -15.32,255.41 			"/>
			<polygon class="st8" points="30.54,130.83 8.46,76.88 -38.4,59.2 -88.24,65.13 -58.29,71.58 -70.85,78.1 -22.52,83.03 
				-42.71,89.25 -4.31,97.99 -16.15,100.97 10.89,109.13 			"/>
			<polygon class="st8" points="30.68,130.27 10.64,122.73 -3.62,128.56 0.83,120.32 -31.59,129.84 -24.06,117.47 -56.54,127.79 
				-48.78,118.46 -84.03,126.08 -47.65,98.2 3.23,98.05 			"/>
			<polygon class="st8" points="111.53,94.21 82.43,96.43 92.69,104.35 62.98,108.85 70.3,112.68 49.46,117.56 30.68,130.27 
				43.16,111.4 60.4,85.31 89.12,68.16 128.93,86.52 100.04,87.05 			"/>
			<polygon class="st8" points="62.98,108.85 43.16,111.4 60.4,85.31 			"/>
			<polygon class="st8" points="129.67,147.43 94.56,128.37 100.26,140.24 65.01,127.68 72.46,135.26 45.97,129.3 30.68,130.27 
				70.12,103.8 116.5,107.57 147.92,134.37 151.19,156.11 127.42,136.15 			"/>
			<polygon class="st8" points="30.68,130.27 10.64,122.73 -3.62,128.56 0.83,120.32 -31.59,129.84 -24.06,117.47 3.23,98.05 			"/>
			<polygon class="st8" points="35.31,163.16 25.38,203.73 25.8,160.3 			"/>
			<polygon class="st8" points="25.38,203.73 -15.31,255.42 13.59,199.23 			"/>
			<polygon class="st8" points="3.23,98.05 -24.06,117.47 -47.65,98.2 			"/>
			<path class="st8" d="M72.46,135.26l-26.49-5.96l-15.29,0.98l39.44-26.47l-5.13,23.87c0,0,0.01,0,0.01,0.01L72.46,135.26z"/>
			<polygon class="st8" points="94.56,128.37 100.26,140.24 65.01,127.68 116.5,107.57 			"/>
			<polygon class="st8" points="82.35,205.44 74.8,174.65 68.52,188.53 58.52,157.87 55.92,167.14 47.13,146.22 30.68,130.27 
				82.2,146.89 105.01,172.08 93.39,221.65 87.62,190.5 			"/>
			<polygon class="st8" points="151.19,156.11 127.42,136.15 116.5,107.57 147.92,134.37 			"/>
			<path class="st8" d="M30.68,130.27l-22,6.35l-8.84,13.48l-1.14-9.33l-22.4,27.65l-0.96-14.55l-21.96,28.33l1.07-12.25l-26,27.87
				l14.67-44.77c0,0,0,0,0-0.01l38.12-26.11L30.68,130.27z"/>
			<polygon class="st8" points="30.68,130.27 8.68,136.62 -0.16,150.1 -1.3,140.77 -23.7,168.41 -24.66,153.86 -18.75,126.92 			"/>
			<polygon class="st8" points="8.68,136.62 -0.16,150.1 -1.3,140.77 			"/>
			<polygon class="st8" points="100.04,87.05 60.4,85.31 89.12,68.16 			"/>
		</g>
		<g style="clip-path:url(#SVGID_00000090279641421616579870000011380304483168991402_);">
			<path class="st11" d="M386.79,143.25c-9.71,1.15-10.64,2.08-11.79,11.79c-1.15-9.71-2.08-10.64-11.79-11.79
				c9.71-1.15,10.64-2.08,11.79-11.79C376.15,141.17,377.08,142.1,386.79,143.25z"/>
			<path class="st11" d="M444.21,100.56c-4.03,0.48-4.41,0.86-4.89,4.89c-0.48-4.03-0.86-4.41-4.89-4.89
				c4.03-0.48,4.41-0.86,4.89-4.89C439.8,99.69,440.19,100.08,444.21,100.56z"/>
			<path class="st11" d="M14.91,169.63c-4.03,0.48-4.41,0.86-4.89,4.89c-0.48-4.03-0.86-4.41-4.89-4.89
				c4.03-0.48,4.41-0.86,4.89-4.89C10.5,168.77,10.89,169.16,14.91,169.63z"/>
			<path class="st11" d="M738.33,107.55c-4.03,0.48-4.41,0.86-4.89,4.89c-0.48-4.03-0.86-4.41-4.89-4.89
				c4.03-0.48,4.41-0.86,4.89-4.89C733.92,106.69,734.3,107.08,738.33,107.55z"/>
			<path class="st11" d="M649.29,132.09c-6.28,0.74-6.88,1.35-7.63,7.63c-0.74-6.28-1.35-6.88-7.63-7.63
				c6.28-0.74,6.88-1.35,7.63-7.63C642.4,130.74,643.01,131.34,649.29,132.09z"/>
			<path class="st11" d="M37.66,224.72c-3.82,0.45-4.18,0.82-4.63,4.63c-0.45-3.82-0.82-4.18-4.63-4.63
				c3.82-0.45,4.18-0.82,4.63-4.63C33.48,223.9,33.84,224.27,37.66,224.72z"/>
			<path class="st11" d="M564.05,75.75c-3.82,0.45-4.18,0.82-4.63,4.63c-0.45-3.82-0.82-4.18-4.63-4.63
				c3.82-0.45,4.18-0.82,4.63-4.63C559.87,74.93,560.24,75.29,564.05,75.75z"/>
			<path class="st11" d="M690.92,98.85c-3.82,0.45-4.18,0.82-4.63,4.63c-0.45-3.82-0.82-4.18-4.63-4.63
				c3.82-0.45,4.18-0.82,4.63-4.63C686.74,98.04,687.1,98.4,690.92,98.85z"/>
			<path class="st11" d="M220.63,98.85c-3.7,0.44-4.05,0.79-4.49,4.49c-0.44-3.7-0.79-4.05-4.49-4.49c3.7-0.44,4.05-0.79,4.49-4.49
				C216.57,98.06,216.93,98.42,220.63,98.85z"/>
			<path class="st11" d="M405.59,173.81c-6.28,0.74-6.88,1.35-7.63,7.63c-0.74-6.28-1.35-6.88-7.63-7.63
				c6.28-0.74,6.88-1.35,7.63-7.63C398.7,172.46,399.3,173.06,405.59,173.81z"/>
			<path class="st11" d="M57.58,200.07c-6.28,0.74-6.88,1.35-7.63,7.63c-0.74-6.28-1.35-6.88-7.63-7.63
				c6.28-0.74,6.88-1.35,7.63-7.63C50.7,198.73,51.3,199.33,57.58,200.07z"/>
			<path class="st11" d="M327.26,83.37c-6.28,0.74-6.88,1.35-7.63,7.63c-0.74-6.28-1.35-6.88-7.63-7.63
				c6.28-0.74,6.88-1.35,7.63-7.63C320.38,82.03,320.98,82.63,327.26,83.37z"/>
		</g>
		<g style="clip-path:url(#SVGID_00000090279641421616579870000011380304483168991402_);">
			<g>
				<polygon class="st12" points="164.37,68.5 -134.54,-26.9 -61.37,-67.06 -28.68,-71.51 				"/>
				<polygon class="st8" points="164.37,68.5 95.71,-88.46 -5.56,-74.66 				"/>
				<path class="st13" d="M17.17-77.76L164.37,68.5c0,0-196.52-116.22-229.13-135.1L17.17-77.76z"/>
			</g>
			<g>
				<polygon class="st12" points="849.92,455.34 586.24,375.2 704.99,535.48 909.69,535.48 				"/>
				<polygon class="st13" points="909.69,535.48 586.24,375.2 772.07,533.68 				"/>
				<polygon points="772.07,533.68 586.24,375.2 682.86,535.48 				"/>
			</g>
		</g>
	</g>
</g>
</svg>
